#!OML:ASF H:\Dans Jumps\Project 1\Capture day 1\Session 1\subject.ASF
:FULLY-SPECIFIED
:DEGREES
619
root 0.225547 17.2509 -8.73187 12.5221 -2.38774 -0.68387
lowerback 8.97673 0.32405 -0.421807
upperback 6.58293 0.385765 1.36384
thorax 1.78088 0.147281 1.61719
lowerneck -12.7137 0.791679 -1.1881
upperneck 22.8765 1.21897 0.591932
head 9.27761 0.52559 0.544559
rclavicle -7.95139e-015 5.96354e-016
rhumerus -18.548 -3.2202 -84.3451
rradius 29.8742
rwrist 25.047
rhand -20.2302 -26.5244
rfingers 7.12502
rthumb 6.11759 -56.4161
lclavicle -7.95139e-015 5.96354e-016
lhumerus -16.7837 -8.77833 91.6476
lradius 23.2274
lwrist 17.6396
lhand -27.1815 -3.45513
lfingers 7.12502
lthumb -0.595344 26.5238
rfemur -35.3753 -4.00521 19.8856
rtibia 39.324
rfoot -14.6912 -1.50645
rtoes 15.8694
lfemur -33.1743 6.61118 -19.4765
ltibia 35.4708
lfoot -12.7423 6.11807
ltoes 6.22898
620
root 0.236356 17.2457 -8.72273 12.5387 -2.49577 -0.644859
lowerback 9.00438 0.310181 -0.443457
upperback 6.5883 0.365785 1.35499
thorax 1.77193 0.136666 1.62157
lowerneck -12.7701 0.837301 -1.15886
upperneck 22.9118 1.28774 0.543715
head 9.3005 0.554325 0.531609
rclavicle -5.96354e-016 -2.10712e-014
rhumerus -18.5233 -3.23607 -84.3022
rradius 29.8796
rwrist 25.0157
rhand -20.2313 -26.5143
rfingers 7.12502
rthumb 6.11649 -56.406
lclavicle -5.96354e-016 -2.10712e-014
lhumerus -16.8784 -9.10463 91.6522
lradius 23.2927
lwrist 17.7919
lhand -27.2829 -3.56927
lfingers 7.12502
lthumb -0.693345 26.4093
rfemur -35.418 -3.90908 19.7719
rtibia 39.3951
rfoot -14.7429 -1.52193
rtoes 15.8315
lfemur -33.1969 6.60242 -19.5527
ltibia 35.5447
lfoot -12.7513 6.20696
ltoes 6.21882
621
root 0.246776 17.239 -8.71541 12.5575 -2.59695 -0.607726
lowerback 9.03848 0.297043 -0.468726
upperback 6.59741 0.346485 1.34984
thorax 1.76332 0.126174 1.63177
lowerneck -12.8344 0.878681 -1.13712
upperneck 22.9688 1.35044 0.504223
head 9.3324 0.580379 0.522435
rclavicle 5.96354e-016 9.74045e-015
rhumerus -18.4757 -3.29028 -84.2536
rradius 29.8508
rwrist 25.0494
rhand -20.2387 -26.5308
rfingers 7.12502
rthumb 6.10939 -56.4227
lclavicle 5.96354e-016 9.74045e-015
lhumerus -16.9332 -9.41764 91.656
lradius 23.3077
lwrist 17.9139
lhand -27.3778 -3.6788
lfingers 7.12502
lthumb -0.784969 26.2995
rfemur -35.5095 -3.82176 19.6668
rtibia 39.5266
rfoot -14.7798 -1.53784
rtoes 15.8008
lfemur -33.2488 6.60765 -19.6322
ltibia 35.6534
lfoot -12.7771 6.29659
ltoes 6.16279
622
root 0.256674 17.2313 -8.70981 12.5811 -2.69347 -0.574778
lowerback 9.07652 0.285756 -0.496234
upperback 6.61006 0.329421 1.34829
thorax 1.75619 0.116622 1.64682
lowerneck -12.9093 0.916176 -1.1212
upperneck 23.05 1.40734 0.473074
head 9.37482 0.603953 0.516697
rclavicle -7.55382e-015 -5.96354e-016
rhumerus -18.4058 -3.39207 -84.2005
rradius 29.7871
rwrist 25.1532
rhand -20.2501 -26.5596
rfingers 7.12502
rthumb 6.09836 -56.4518
lclavicle -7.55382e-015 -5.96354e-016
lhumerus -16.9452 -9.70953 91.6567
lradius 23.2683
lwrist 17.9873
lhand -27.53 -3.89426
lfingers 7.12502
lthumb -0.931937 26.0834
rfemur -35.6394 -3.73365 19.5703
rtibia 39.6985
rfoot -14.8052 -1.55726
rtoes 15.7729
lfemur -33.327 6.62816 -19.712
ltibia 35.789
lfoot -12.8206 6.38197
ltoes 6.08198
